<?xml version="1.0"?>
<svg xmlns="http://www.w3.org/2000/svg" width="512" height="512" viewBox="0 0 128 128"><g><g><path d="M64,30.683,35.016,18.207a33.586,33.586,0,0,0-4.768,17.3c0,18.64,15.111,23.744,33.752,23.744s33.752-5.1,33.752-23.744a33.586,33.586,0,0,0-4.768-17.3Z" fill="#df8eef"/><path d="M64,30.683,24.531,13.693,25.717,12.5A22.411,22.411,0,0,1,52.026,8.493h0A22.41,22.41,0,0,1,64,28.325Z" fill="#ffe72c"/><path d="M48.176,23.871A9.38,9.38,0,1,0,64,30.683Z" fill="#5f2e78"/><path d="M64,30.683l39.469-16.99L102.283,12.5A22.411,22.411,0,0,0,75.974,8.493h0A22.41,22.41,0,0,0,64,28.325Z" fill="#ffe72c"/><path d="M79.824,23.871,64,30.683a9.383,9.383,0,1,0,15.824-6.812Z" fill="#5f2e78"/><path d="M64.028,31.23h-.056A9.375,9.375,0,0,1,57.54,39.6,12.908,12.908,0,0,0,64,48.781,12.908,12.908,0,0,0,70.46,39.6,9.375,9.375,0,0,1,64.028,31.23Z" fill="#ffe72c"/><path d="M52.026,8.493h0A22.41,22.41,0,0,1,64,28.325,22.41,22.41,0,0,1,75.974,8.493h0A22.369,22.369,0,0,1,81.29,6.515a33.751,33.751,0,0,0-34.58,0A22.369,22.369,0,0,1,52.026,8.493Z" fill="#df8eef"/><path d="M93.416,49.592C87.628,56.9,76.627,59.245,64,59.245S40.372,56.9,34.584,49.592A38.172,38.172,0,0,0,28,71.125c0,20.642,16.118,38.129,36,38.129s36-17.487,36-38.129A38.172,38.172,0,0,0,93.416,49.592Z" fill="#5f2e78"/><path d="M47.245,109.254c-3.056,5.8-3.049,11.781.126,13.614,2.708,1.564,6.878-.373,10.215-4.417,1.043,4.578,3.52,7.8,6.414,7.8s5.371-3.222,6.414-7.8c3.337,4.044,7.507,5.981,10.215,4.417,3.175-1.833,3.182-7.813.126-13.614Z" fill="#5f2e78"/><path d="M85,69.865a68.142,68.142,0,0,0-1.327-13.528c-5.539,2.1-12.326,2.908-19.673,2.908s-14.134-.8-19.673-2.908A68.142,68.142,0,0,0,43,69.865c0,21.338,9.4,39.389,21,39.389S85,91.2,85,69.865Z" fill="#df8eef"/><g><path d="M43.1,102.046H1.75v7.208H64c-.483,0-.965-.014-1.443-.04A34.342,34.342,0,0,1,43.1,102.046Z" fill="#00a3b4"/><path d="M84.9,102.046a34.342,34.342,0,0,1-19.455,7.168c-.478.026-.96.04-1.443.04h62.25v-7.208Z" fill="#00a3b4"/></g><g><path d="M73.383,27.563A3.133,3.133,0,1,0,76.516,30.7,3.136,3.136,0,0,0,73.383,27.563Z" fill="#df8eef"/><path d="M54.617,27.563A3.133,3.133,0,1,0,57.75,30.7,3.136,3.136,0,0,0,54.617,27.563Z" fill="#df8eef"/></g></g><g><path d="M126.25,100.3H89.7A40.83,40.83,0,0,0,101.75,71.125a39.856,39.856,0,0,0-6.238-21.481q3.976-5.67,3.99-14.142a35.46,35.46,0,0,0-4.053-16.451l8.712-3.75a1.75,1.75,0,0,0,.547-2.843l-1.186-1.189A24.013,24.013,0,0,0,81.553,4.662a35.377,35.377,0,0,0-35.107,0,24.008,24.008,0,0,0-21.968,6.607l-1.186,1.189a1.75,1.75,0,0,0,.547,2.843l8.712,3.75A35.46,35.46,0,0,0,28.5,35.5q0,8.472,3.989,14.14a39.6,39.6,0,0,0-4.356,9.271,1.75,1.75,0,0,0,3.336,1.059,36.044,36.044,0,0,1,3.4-7.535,24.509,24.509,0,0,0,7.507,4.931,70.2,70.2,0,0,0-1.119,12.5c0,15.062,4.5,28.253,11.2,35.421-13.084-5.161-22.7-18.722-22.7-34.161a1.75,1.75,0,0,0-3.5,0A40.83,40.83,0,0,0,38.3,100.3H1.75A1.75,1.75,0,0,0,0,102.046v7.208A1.75,1.75,0,0,0,1.75,111H44.531c-2.253,5.866-1.547,11.352,1.965,13.38,2.843,1.641,6.764.59,10.308-2.587,1.576,3.849,4.229,6.2,7.2,6.2s5.62-2.355,7.2-6.2c3.543,3.177,7.465,4.228,10.308,2.586,3.512-2.028,4.218-7.514,1.965-13.38H95.125a1.75,1.75,0,0,0,0-3.5H79.435a37.347,37.347,0,0,0,6.173-3.708H124.5V107.5h-5.875a1.75,1.75,0,0,0,0,3.5h7.625a1.75,1.75,0,0,0,1.75-1.75v-7.208A1.75,1.75,0,0,0,126.25,100.3Zm-50.7,4.99c6.7-7.168,11.2-20.359,11.2-35.421a70.2,70.2,0,0,0-1.119-12.5,24.525,24.525,0,0,0,7.5-4.929A36.405,36.405,0,0,1,98.25,71.125C98.25,86.564,88.635,100.125,75.551,105.286ZM86.441,7.643a20.564,20.564,0,0,1,13.951,5.469L92.3,16.6h0L65.752,28.023A20.605,20.605,0,0,1,76.789,10.042a20.924,20.924,0,0,1,4.792-1.815,1.6,1.6,0,0,0,.216-.046A20.568,20.568,0,0,1,86.441,7.643Zm-5.425,23.04A7.633,7.633,0,0,1,65.832,31.8l4.552-1.96a3.068,3.068,0,0,0-.134.855,3.133,3.133,0,1,0,4.573-2.766l4.556-1.961A7.542,7.542,0,0,1,81.016,30.683Zm-32.4-4.715,4.556,1.961A3.127,3.127,0,1,0,57.75,30.7a3.068,3.068,0,0,0-.134-.855l4.552,1.96a7.633,7.633,0,0,1-15.184-1.117A7.542,7.542,0,0,1,48.621,25.968ZM64,36.65a11.194,11.194,0,0,0,4.424,3.985A11.069,11.069,0,0,1,64,46.729a11.069,11.069,0,0,1-4.424-6.094A11.194,11.194,0,0,0,64,36.65ZM64,3.5A32,32,0,0,1,76.785,6.17c-.547.239-1.09.493-1.626.774A24.1,24.1,0,0,0,64,19.308,24.1,24.1,0,0,0,52.841,6.944c-.536-.281-1.079-.535-1.626-.774A32,32,0,0,1,64,3.5ZM46.242,8.2c.043.012.085.019.128.028a20.873,20.873,0,0,1,4.841,1.817A20.605,20.605,0,0,1,62.248,28.023L35.708,16.6h0l-8.1-3.486A20.527,20.527,0,0,1,46.242,8.2ZM36.088,48.706a1.736,1.736,0,0,0-.306-.382C33.241,45,32,40.739,32,35.5a31.973,31.973,0,0,1,3.767-15.068l9.572,4.12a10.994,10.994,0,0,0-1.853,6.129,11.054,11.054,0,0,0,12.752,11,14.556,14.556,0,0,0,6.913,8.627,1.756,1.756,0,0,0,1.7,0,14.556,14.556,0,0,0,6.913-8.627,11.109,11.109,0,0,0,10.9-17.13l9.572-4.12A31.973,31.973,0,0,1,96,35.5c0,5.236-1.243,9.493-3.783,12.821a1.723,1.723,0,0,0-.307.383A20.08,20.08,0,0,1,83.4,54.615c-.025,0-.049,0-.073.007a1.722,1.722,0,0,0-.591.244C77.88,56.631,71.661,57.5,64,57.5s-13.88-.864-18.734-2.629a1.722,1.722,0,0,0-.591-.244c-.024-.005-.048,0-.073-.007A20.074,20.074,0,0,1,36.088,48.706ZM45.7,58.6A61.09,61.09,0,0,0,64,61,61.09,61.09,0,0,0,82.3,58.6a66.98,66.98,0,0,1,.954,11.261c0,20.4-8.815,37.639-19.25,37.639S44.75,90.268,44.75,69.865A66.98,66.98,0,0,1,45.7,58.6ZM3.5,103.8H42.392a37.347,37.347,0,0,0,6.173,3.708H3.5ZM79.671,111c2.3,4.94,1.964,9.263.083,10.349-1.807,1.043-5.241-.684-7.99-4.016a1.75,1.75,0,0,0-3.056.726c-.863,3.791-2.8,6.438-4.708,6.438s-3.845-2.647-4.708-6.438a1.75,1.75,0,0,0-1.3-1.315,1.8,1.8,0,0,0-.4-.047,1.755,1.755,0,0,0-1.35.636c-2.749,3.333-6.184,5.06-7.99,4.016-1.881-1.086-2.22-5.409.083-10.349H79.671Z"/><path d="M109.125,107.5h-4.5a1.75,1.75,0,0,0,0,3.5h4.5a1.75,1.75,0,0,0,0-3.5Z"/></g></g></svg>
