<?xml version="1.0"?>
<svg xmlns="http://www.w3.org/2000/svg" height="512px" version="1.1" viewBox="0 -29 512.00115 512" width="512px" class=""><g><g id="surface1">
<path d="M 358.945312 433.878906 C 356.953125 426.875 352.332031 419.382812 341.664062 419.382812 C 339.625 379.46875 312.664062 357.785156 311.519531 356.882812 C 303.96875 350.933594 293.027344 352.230469 287.082031 359.78125 C 281.132812 367.328125 282.429688 378.273438 289.980469 384.21875 C 290.136719 384.34375 305.683594 397.234375 306.902344 421.15625 L 306.902344 431.503906 C 306.902344 439.394531 313.300781 445.792969 321.195312 445.792969 L 349.839844 445.792969 C 356.058594 445.792969 360.648438 439.863281 358.945312 433.878906 Z M 358.945312 433.878906 " style="fill:#AAA4AD" data-original="#905FA8" class="active-path" data-old_color="#905FA8"/>
<path d="M 153.054688 433.878906 C 155.046875 426.875 159.671875 419.382812 170.339844 419.382812 C 172.375 379.46875 199.335938 357.785156 200.484375 356.882812 C 208.03125 350.933594 218.972656 352.230469 224.921875 359.78125 C 230.871094 367.328125 229.570312 378.273438 222.023438 384.21875 C 221.867188 384.34375 206.316406 397.234375 205.097656 421.15625 L 205.097656 431.503906 C 205.097656 439.394531 198.699219 445.792969 190.808594 445.792969 L 162.164062 445.792969 C 155.941406 445.792969 151.355469 439.863281 153.054688 433.878906 Z M 153.054688 433.878906 " style="fill:#AAA4AD" data-original="#905FA8" class="active-path" data-old_color="#905FA8"/>
<path d="M 72.246094 195.757812 C 70.121094 192.136719 65.339844 191.105469 61.945312 193.578125 C 43.285156 207.167969 -7.222656 252.074219 11.632812 329.214844 C 12.660156 333.417969 17.128906 335.78125 21.152344 334.1875 C 37.464844 327.722656 76.75 316.429688 92.914062 349.335938 C 94.5 352.574219 98.320312 354.035156 101.703125 352.785156 C 117.84375 346.828125 160.40625 334.363281 174.648438 362.308594 L 189.890625 280.390625 C 128.613281 283.171875 84.8125 217.179688 72.246094 195.757812 Z M 72.246094 195.757812 " style="fill:#847E88" data-original="#835699" class="" data-old_color="#835699"/>
<path d="M 450.058594 193.578125 C 446.664062 191.105469 441.882812 192.136719 439.757812 195.757812 C 427.191406 217.179688 383.390625 283.171875 322.113281 280.390625 L 337.355469 362.308594 C 351.597656 334.363281 394.160156 346.828125 410.300781 352.785156 C 413.683594 354.035156 417.503906 352.574219 419.089844 349.335938 C 435.25 316.429688 474.535156 327.722656 490.851562 334.1875 C 494.871094 335.78125 499.34375 333.417969 500.371094 329.214844 C 519.226562 252.074219 468.71875 207.167969 450.058594 193.578125 Z M 450.058594 193.578125 " style="fill:#847E88" data-original="#835699" class="" data-old_color="#835699"/>
<path d="M 342.015625 335.414062 C 342.015625 382.921875 303.507812 411.488281 256 411.488281 C 208.496094 411.488281 169.984375 382.921875 169.984375 335.414062 C 169.984375 287.910156 208.496094 249.398438 256 249.398438 C 303.507812 249.398438 342.015625 287.910156 342.015625 335.414062 Z M 342.015625 335.414062 " style="fill:#756F78" data-original="#A66DC2" class="" data-old_color="#A66DC2"/>
<path d="M 188.683594 39.6875 C 188.683594 39.6875 164.121094 5.089844 112.382812 7.632812 C 103.503906 8.070312 95.996094 14.417969 93.976562 23.074219 C 88.363281 47.109375 82.160156 96.992188 116.417969 127.992188 Z M 188.683594 39.6875 " style="fill:#AAA4AD" data-original="#905FA8" class="active-path" data-old_color="#905FA8"/>
<path d="M 125.191406 33.714844 C 121.214844 33.328125 117.59375 36.097656 116.957031 40.039062 C 110.445312 80.398438 124.335938 100.289062 133.765625 108.820312 L 167.828125 54.964844 C 167.1875 54.121094 153.453125 36.464844 125.191406 33.714844 Z M 125.191406 33.714844 " style=" stroke:none;fill-rule:nonzero;fill:rgb(99.215686%,60.392157%,78.431373%);fill-opacity:1;" data-original="#FD9AC8"/>
<path d="M 323.320312 39.6875 C 323.320312 39.6875 347.882812 5.089844 399.621094 7.632812 C 408.5 8.070312 416.003906 14.417969 418.027344 23.074219 C 423.636719 47.109375 429.84375 96.992188 395.582031 127.992188 Z M 323.320312 39.6875 " style="fill:#AAA4AD" data-original="#905FA8" class="active-path" data-old_color="#905FA8"/>
<path d="M 386.8125 33.714844 C 390.785156 33.328125 394.410156 36.097656 395.046875 40.039062 C 401.558594 80.398438 387.664062 100.289062 378.234375 108.820312 L 344.175781 54.964844 C 344.816406 54.121094 358.546875 36.464844 386.8125 33.714844 Z M 386.8125 33.714844 " style=" stroke:none;fill-rule:nonzero;fill:rgb(99.215686%,60.392157%,78.431373%);fill-opacity:1;" data-original="#FD9AC8"/>
<path d="M 175.007812 306.421875 C 199.203125 318.683594 226.765625 325.640625 256 325.640625 C 285.238281 325.640625 312.800781 318.683594 336.996094 306.421875 C 325.09375 273.183594 293.332031 249.398438 256 249.398438 C 218.671875 249.398438 186.90625 273.183594 175.007812 306.421875 Z M 175.007812 306.421875 " style="fill:#AAA4AD" data-original="#905FA8" class="active-path" data-old_color="#905FA8"/>
<path d="M 399.527344 159.738281 C 399.527344 84.679688 335.269531 23.835938 256 23.835938 C 176.734375 23.835938 112.476562 84.679688 112.476562 159.738281 C 112.476562 234.792969 176.734375 295.640625 256 295.640625 C 335.269531 295.640625 399.527344 234.792969 399.527344 159.738281 Z M 399.527344 159.738281 " style="fill:#756F78" data-original="#A66DC2" class="" data-old_color="#A66DC2"/>
<path d="M 186.875 189.96875 C 191.015625 189.96875 194.375 186.613281 194.375 182.46875 L 194.375 169.957031 C 194.375 165.816406 191.015625 162.457031 186.875 162.457031 C 182.730469 162.457031 179.375 165.816406 179.375 169.957031 L 179.375 182.46875 C 179.375 186.613281 182.730469 189.96875 186.875 189.96875 Z M 186.875 189.96875 " style=" stroke:none;fill-rule:nonzero;fill:rgb(0%,0%,0%);fill-opacity:1;" data-original="#000000" class=""/>
<path d="M 325.136719 189.96875 C 329.28125 189.96875 332.640625 186.613281 332.640625 182.46875 L 332.640625 169.957031 C 332.640625 165.816406 329.28125 162.457031 325.136719 162.457031 C 320.996094 162.457031 317.636719 165.816406 317.636719 169.957031 L 317.636719 182.46875 C 317.636719 186.613281 320.996094 189.96875 325.136719 189.96875 Z M 325.136719 189.96875 " style=" stroke:none;fill-rule:nonzero;fill:rgb(0%,0%,0%);fill-opacity:1;" data-original="#000000" class=""/>
<path d="M 256.007812 196.648438 C 264.820312 196.648438 273.097656 192.960938 278.714844 186.535156 C 281.441406 183.414062 281.125 178.675781 278.003906 175.953125 C 274.886719 173.226562 270.148438 173.542969 267.421875 176.664062 C 264.652344 179.832031 260.492188 181.648438 256.007812 181.648438 C 251.519531 181.648438 247.359375 179.832031 244.589844 176.664062 C 241.863281 173.542969 237.125 173.226562 234.007812 175.953125 C 230.886719 178.675781 230.570312 183.414062 233.296875 186.535156 C 238.914062 192.960938 247.191406 196.648438 256.007812 196.648438 Z M 256.007812 196.648438 " style=" stroke:none;fill-rule:nonzero;fill:rgb(0%,0%,0%);fill-opacity:1;" data-original="#000000" class=""/>
<path d="M 504.59375 290.160156 C 504.5625 290.160156 504.53125 290.160156 504.5 290.160156 C 500.402344 290.160156 497.050781 293.457031 497 297.566406 C 496.878906 307.132812 495.597656 317.046875 493.183594 327.042969 C 483.585938 323.28125 469.253906 318.996094 454.65625 319.503906 C 435.335938 320.175781 420.792969 329.203125 412.566406 345.625 C 404.417969 342.640625 388.796875 337.730469 373.3125 337.335938 C 363.347656 337.082031 355.507812 338.714844 349.328125 341.402344 C 349.460938 339.414062 349.523438 337.410156 349.523438 335.414062 C 349.523438 322.605469 346.832031 309.761719 341.699219 298.023438 C 341.671875 297.964844 341.648438 297.90625 341.621094 297.847656 C 340.050781 294.265625 338.253906 290.746094 336.242188 287.390625 C 359.554688 284.742188 382.394531 273.09375 404.324219 252.632812 C 424.808594 233.523438 439.164062 211.546875 446.019531 199.914062 C 457.644531 208.453125 484.695312 231.792969 493.859375 269.433594 C 494.835938 273.457031 498.890625 275.929688 502.921875 274.949219 C 506.945312 273.96875 509.414062 269.910156 508.433594 265.886719 C 498 223.019531 467.226562 196.800781 454.480469 187.515625 C 451.164062 185.101562 446.957031 184.199219 442.9375 185.035156 C 438.898438 185.875 435.382812 188.402344 433.292969 191.964844 C 424.195312 207.46875 396.0625 250.539062 356.460938 266.71875 C 387.46875 240.4375 407.03125 202.21875 407.03125 159.738281 C 407.03125 149.703125 405.9375 139.910156 403.863281 130.453125 C 418.257812 115.980469 426.785156 96.914062 429.222656 73.707031 C 431.355469 53.351562 428.285156 34.011719 425.335938 21.371094 C 422.554688 9.46875 412.136719 0.742188 399.992188 0.144531 C 398.066406 0.046875 396.125 0 394.222656 0 C 354.109375 0 330.28125 20.707031 321.296875 30.441406 C 301.527344 21.40625 279.378906 16.335938 256.003906 16.335938 C 232.632812 16.335938 210.484375 21.40625 190.714844 30.441406 C 181.726562 20.707031 157.898438 0 117.789062 0 C 115.886719 0 113.945312 0.046875 112.019531 0.144531 C 99.875 0.742188 89.453125 9.46875 86.675781 21.371094 C 83.722656 34.011719 80.652344 53.351562 82.789062 73.707031 C 85.226562 96.914062 93.753906 115.980469 108.148438 130.453125 C 106.074219 139.910156 104.980469 149.703125 104.980469 159.738281 C 104.980469 202.21875 124.539062 240.4375 155.550781 266.71875 C 115.941406 250.539062 87.8125 207.46875 78.71875 191.964844 C 76.628906 188.398438 73.113281 185.875 69.074219 185.035156 C 65.054688 184.195312 60.847656 185.101562 57.53125 187.515625 C 45.453125 196.308594 16.132812 221.121094 4.730469 261.460938 C 3.605469 265.449219 5.921875 269.59375 9.910156 270.71875 C 13.894531 271.847656 18.039062 269.527344 19.167969 265.542969 C 29.179688 230.109375 54.953125 208.019531 65.988281 199.914062 C 72.84375 211.546875 87.203125 233.523438 107.6875 252.632812 C 129.617188 273.09375 152.453125 284.742188 175.769531 287.390625 C 168.964844 298.765625 164.609375 311.71875 163.097656 324.878906 C 162.46875 330.351562 162.324219 335.90625 162.683594 341.402344 C 156.503906 338.714844 148.65625 337.082031 138.699219 337.335938 C 123.214844 337.730469 107.589844 342.636719 99.445312 345.625 C 91.214844 329.203125 76.671875 320.171875 57.351562 319.503906 C 42.753906 319 28.425781 323.28125 18.828125 327.042969 C 16.082031 315.679688 14.804688 304.449219 15.023438 293.65625 C 15.109375 289.515625 11.820312 286.089844 7.679688 286.003906 C 3.558594 285.917969 0.113281 289.207031 0.0273438 293.351562 C -0.222656 305.570312 1.234375 318.234375 4.351562 330.996094 C 6.421875 339.464844 15.792969 344.378906 23.917969 341.160156 C 30.6875 338.480469 43.960938 334.046875 56.832031 334.492188 C 70.824219 334.980469 80.421875 340.917969 86.183594 352.644531 C 89.46875 359.335938 97.261719 362.421875 104.304688 359.820312 C 116.203125 355.425781 155.730469 342.9375 167.71875 365.285156 C 169.4375 369.84375 171.574219 374.183594 174.117188 378.296875 C 168.351562 389.09375 164.746094 400.652344 163.363281 412.789062 C 154.929688 415.101562 148.707031 421.757812 145.84375 431.828125 C 142.820312 442.464844 151.1875 453.292969 162.167969 453.292969 L 190.8125 453.292969 C 202.828125 453.292969 212.601562 443.519531 212.601562 431.503906 L 212.601562 421.355469 C 212.792969 417.878906 213.355469 414.480469 214.261719 411.1875 C 226.859375 416.277344 241.058594 418.988281 256.003906 418.988281 C 270.957031 418.988281 285.148438 416.277344 297.746094 411.1875 C 298.652344 414.480469 299.21875 417.878906 299.40625 421.355469 L 299.40625 431.503906 C 299.40625 443.519531 309.183594 453.292969 321.199219 453.292969 C 321.199219 453.292969 349.820312 453.292969 349.84375 453.292969 C 360.851562 453.292969 369.1875 442.457031 366.164062 431.828125 C 363.300781 421.757812 357.082031 415.101562 348.648438 412.789062 C 347.265625 400.652344 343.660156 389.09375 337.894531 378.296875 C 340.433594 374.183594 342.570312 369.84375 344.289062 365.285156 C 356.28125 342.941406 395.808594 355.429688 407.703125 359.820312 C 414.75 362.421875 422.539062 359.335938 425.828125 352.644531 C 431.585938 340.917969 441.1875 334.980469 455.175781 334.496094 C 468.0625 334.050781 481.324219 338.480469 488.089844 341.160156 C 496.25 344.394531 505.585938 339.476562 507.660156 330.996094 C 510.40625 319.761719 511.867188 308.578125 512 297.753906 C 512.054688 293.613281 508.738281 290.214844 504.59375 290.160156 Z M 385.050781 85.195312 C 377.394531 73.257812 367.917969 62.425781 356.925781 53.050781 C 362.96875 48.359375 373.113281 42.585938 387.558594 41.179688 C 387.601562 41.179688 387.640625 41.21875 387.648438 41.234375 C 390.847656 61.058594 388.75 75.265625 385.050781 85.195312 Z M 394.222656 15 C 395.878906 15 397.574219 15.042969 399.257812 15.125 C 404.746094 15.394531 409.464844 19.367188 410.726562 24.78125 C 421.410156 70.539062 410.496094 98.011719 398.917969 113.277344 C 397.445312 109.195312 395.78125 105.1875 393.9375 101.269531 C 405.964844 81.195312 405.308594 56.507812 402.457031 38.84375 C 401.273438 31.507812 395.007812 26.179688 387.558594 26.179688 C 387.070312 26.179688 386.578125 26.203125 386.089844 26.25 C 365.746094 28.230469 352.167969 37.105469 344.707031 43.671875 C 341.632812 41.554688 338.472656 39.53125 335.222656 37.628906 C 344.140625 29.054688 363.457031 15 394.222656 15 Z M 124.367188 41.230469 C 124.371094 41.222656 124.410156 41.179688 124.46875 41.179688 C 138.902344 42.585938 149.046875 48.359375 155.085938 53.050781 C 144.09375 62.425781 134.617188 73.257812 126.960938 85.195312 C 123.261719 75.265625 121.167969 61.058594 124.367188 41.230469 Z M 101.285156 24.78125 C 102.550781 19.367188 107.265625 15.394531 112.757812 15.125 C 114.441406 15.042969 116.132812 15 117.789062 15 C 148.5625 15 167.882812 29.066406 176.792969 37.625 C 173.539062 39.53125 170.378906 41.554688 167.304688 43.671875 C 159.84375 37.105469 146.265625 28.230469 125.921875 26.25 C 125.433594 26.203125 124.941406 26.179688 124.453125 26.179688 C 117.003906 26.179688 110.738281 31.503906 109.554688 38.84375 C 106.707031 56.507812 106.046875 81.195312 118.074219 101.269531 C 116.230469 105.1875 114.566406 109.195312 113.09375 113.277344 C 101.515625 98.015625 90.601562 70.539062 101.285156 24.78125 Z M 119.980469 159.738281 C 119.980469 148.777344 121.445312 138.136719 124.195312 127.976562 C 124.234375 127.835938 124.269531 127.695312 124.308594 127.554688 C 124.574219 126.582031 124.851562 125.617188 125.140625 124.652344 C 125.144531 124.636719 125.148438 124.625 125.15625 124.609375 C 141.378906 70.828125 193.898438 31.335938 256.003906 31.335938 C 318.113281 31.335938 370.628906 70.832031 386.855469 124.609375 C 386.859375 124.625 386.863281 124.636719 386.867188 124.652344 C 387.15625 125.617188 387.433594 126.582031 387.703125 127.554688 C 387.738281 127.695312 387.777344 127.835938 387.816406 127.976562 C 390.5625 138.136719 392.03125 148.777344 392.03125 159.738281 C 392.03125 227.097656 336.792969 282.507812 266.832031 287.730469 C 259.628906 288.269531 252.378906 288.265625 245.179688 287.730469 C 175.21875 282.507812 119.980469 227.097656 119.980469 159.738281 Z M 197.613281 420.773438 C 197.605469 420.902344 197.601562 431.503906 197.601562 431.503906 C 197.601562 435.25 194.554688 438.292969 190.8125 438.292969 L 162.167969 438.292969 C 160.957031 438.292969 159.933594 437.132812 160.273438 435.929688 C 162.554688 427.914062 166.851562 426.886719 170.34375 426.886719 C 174.335938 426.886719 177.628906 423.753906 177.832031 419.765625 C 178.339844 409.871094 180.542969 400.390625 184.402344 391.460938 C 188.914062 396.09375 194.003906 400.175781 199.460938 403.628906 C 199.855469 403.878906 200.238281 404.136719 200.636719 404.378906 C 198.914062 409.652344 197.898438 415.140625 197.613281 420.773438 Z M 213.210938 394.234375 C 199.136719 386.976562 187.441406 374.976562 181.773438 359.933594 C 181.742188 359.839844 181.722656 359.746094 181.6875 359.652344 C 173.15625 336.734375 177.910156 310.046875 191.808594 290.238281 C 191.929688 290.066406 192.054688 289.902344 192.179688 289.730469 C 197.175781 291.941406 202.304688 293.886719 207.53125 295.5625 C 220.476562 299.714844 233.921875 302.1875 247.496094 302.90625 C 253.171875 303.195312 258.84375 303.210938 264.519531 302.90625 C 283.546875 301.898438 302.40625 297.441406 319.835938 289.730469 C 319.957031 289.902344 320.085938 290.066406 320.203125 290.238281 C 334.050781 309.972656 338.824219 336.804688 330.324219 359.652344 C 330.292969 359.738281 330.273438 359.828125 330.246094 359.917969 C 325.265625 375.019531 312.691406 387.074219 298.804688 394.234375 C 286.507812 400.574219 271.796875 403.988281 256.007812 403.988281 C 240.21875 403.988281 225.507812 400.574219 213.210938 394.234375 Z M 351.738281 435.929688 C 352.082031 437.144531 351.050781 438.292969 349.84375 438.292969 L 321.199219 438.292969 C 317.457031 438.292969 314.410156 435.246094 314.410156 431.503906 C 314.410156 431.503906 314.40625 420.902344 314.398438 420.773438 C 314.113281 415.140625 313.097656 409.648438 311.375 404.378906 C 311.34375 404.28125 316.078125 401.28125 317.050781 400.582031 C 320.824219 397.855469 324.359375 394.796875 327.609375 391.457031 C 331.46875 400.386719 333.671875 409.867188 334.179688 419.765625 C 334.382812 423.753906 337.675781 426.882812 341.667969 426.882812 C 345.160156 426.886719 349.457031 427.910156 351.738281 435.929688 Z M 351.738281 435.929688 " style=" stroke:none;fill-rule:nonzero;fill:rgb(0%,0%,0%);fill-opacity:1;" data-original="#000000" class=""/>
</g></g> </svg>
